# xmcd CD database file
#
# Track frame offsets:
#	183
#	13060
#	21450
#	31668
#	46543
#	54820
#	64323
#	78250
#	92325
#	101108
#	113145
#	130128
#	141815
#	154160
#	164230
#	172545
#	183863
#	194610
#	208080
#	220850
#
# Disc length: 3108 seconds
#
# Revision: 4
# Processed by: cddbd v1.5.2PL0 Copyright (c) Steve Scherf et al.
# Submitted via: CDex 1.51
#
DISCID=080c2214
DTITLE=Willie Nelson - 20 Golden Hits
DYEAR=2001
DGENRE=Country
TTITLE0=Any Old Arms Won't Do
TTITLE1=Slow Down Old World
TTITLE2=Healing Hands Of Time
TTITLE3=And So Will You My Love
TTITLE4=Things To Remember
TTITLE5=One Step Beyond
TTITLE6=Undo The Wrong
TTITLE7=Home Is Where You're Happy
TTITLE8=Why Are You Picking On Me ¿
TTITLE9=I Hope So
TTITLE10=I Let My Mind Wonder
TTITLE11=December Days
TTITLE12=I Can't Find The Time
TTITLE13=I Didn't Sleep A Wink
TTITLE14=You Wouldn't Cross The Street To Say Goodbye
TTITLE15=Suffering In Silence
TTITLE16=I Feel Sorry For Him
TTITLE17=You'll Always Have Someone
TTITLE18=I Just Don't Understand
TTITLE19=Pages
EXTD=YEAR: 2001
EXTT0=
EXTT1=
EXTT2=
EXTT3=
EXTT4=
EXTT5=
EXTT6=
EXTT7=
EXTT8=
EXTT9=
EXTT10=
EXTT11=
EXTT12=
EXTT13=
EXTT14=
EXTT15=
EXTT16=
EXTT17=
EXTT18=
EXTT19=
PLAYORDER=
